<?xml version="1.0" encoding="UTF-8"?>
<svg id="Layer_1" xmlns="http://www.w3.org/2000/svg" version="1.1" viewBox="0 0 85.04 85.04">
  <!-- Generator: Adobe Illustrator 30.1.0, SVG Export Plug-In . SVG Version: 2.1.1 Build 136)  -->
  <defs>
    <style>
      .st0 {
        fill: #7ac143;
      }

      .st1 {
        fill: #00b259;
      }
    </style>
  </defs>
  <g transform="translate(14.8, 14.8) scale(0.65)">
    <path class="st1" d="M57.94,39.63v11.99c5.72,0,10.36,4.63,10.36,10.36s-4.64,10.37-10.36,10.37-10.36-4.64-10.36-10.37h-.06v-13.37c-2.23,4.82-5.99,8.88-10.88,11.46-.35.18-.7.35-1.05.51v1.4c0,8.59,4.84,16.03,11.93,19.78,3.11,1.65,6.66,2.58,10.42,2.58,12.35,0,22.36-10.01,22.36-22.36s-10.01-22.35-22.36-22.35Z"/>
    <g>
      <path class="st0" d="M35.5,14.67v22.43h-.07c0,5.72-4.63,10.35-10.36,10.35s-10.35-4.64-10.35-10.35,4.64-10.36,10.35-10.36v-11.99c-12.34,0-22.35,10.01-22.35,22.36,0,12.34,10.01,22.36,22.35,22.36,3.77,0,7.32-.94,10.43-2.58,7.1-3.75,11.94-11.2,11.94-19.77V14.67h-11.94Z"/>
      <rect class="st0" x="35.5" y=".74" width="11.88" height="10.88"/>
    </g>
    <path class="st1" d="M75.14,34.18c.45,0,.91-.06,1.37-.15-.02,0-.05,0-.07.01.05,0,.12-.01.17-.03.11-.03.23-.05.34-.09.08-.02.17-.04.26-.06,3.43-.98,5.64-3.98,4.99-6.9-.65-2.92-3.92-4.7-7.44-4.14-.09.02-.18.03-.26.05-.11.02-.23.04-.34.07-.06,0-.11.03-.17.04.02,0,.05-.01.08-.01-.46.11-.9.26-1.31.44.39-.17.8-.32,1.23-.43-.12.03-.25.05-.37.07-5.85,1.29-12.5,6.32-15.12,8.46-.73.59-.65,1.1.19,1.32,3.2.82,11.47,2.63,17.38,1.32.12-.03.24-.06.37-.09-.44.08-.87.13-1.3.13Z"/>
  </g>
</svg>
